<svg width="21" height="15" viewBox="0 0 21 15" fill="none" xmlns="http://www.w3.org/2000/svg">
<path d="M1.99501 0C1.73226 0.000261042 1.47213 0.0523746 1.22955 0.153351C0.986975 0.254327 0.766707 0.402179 0.581376 0.58844C0.396044 0.7747 0.249299 0.995704 0.149537 1.23878C0.0497748 1.48187 -0.0010367 1.74225 1.60292e-05 2.005V5H21V2.005C20.9998 1.47505 20.7898 0.966732 20.416 0.591064C20.0422 0.215397 19.535 0.00290595 19.005 0H1.99501Z" fill="#F79A59"/>
<path d="M1.52588e-05 5H21V10H1.52588e-05V5Z" fill="white"/>
<path d="M1.52588e-05 10V12.995C0.000271474 13.5249 0.210221 14.0333 0.584015 14.4089C0.957809 14.7846 1.46507 14.9971 1.99501 15H19.005C19.2678 14.9997 19.5279 14.9476 19.7705 14.8466C20.0131 14.7457 20.2333 14.5978 20.4187 14.4116C20.604 14.2253 20.7507 14.0043 20.8505 13.7612C20.9503 13.5181 21.0011 13.2577 21 12.995V10H1.52588e-05Z" fill="#24B47E"/>
<path d="M10.5 9C10.2033 9 9.91333 8.91203 9.66666 8.74721C9.41998 8.58238 9.22773 8.34811 9.1142 8.07402C9.00066 7.79993 8.97096 7.49834 9.02884 7.20737C9.08672 6.91639 9.22958 6.64912 9.43936 6.43935C9.64914 6.22957 9.91641 6.0867 10.2074 6.02882C10.4984 5.97095 10.7999 6.00065 11.074 6.11418C11.3481 6.22771 11.5824 6.41997 11.7472 6.66664C11.912 6.91331 12 7.20333 12 7.5C11.9995 7.89766 11.8413 8.27888 11.5601 8.56007C11.2789 8.84126 10.8977 8.99947 10.5 9ZM10.5 7C10.4011 7 10.3045 7.02932 10.2222 7.08426C10.14 7.1392 10.0759 7.21729 10.0381 7.30865C10.0002 7.40002 9.99033 7.50056 10.0096 7.59755C10.0289 7.69454 10.0765 7.78362 10.1465 7.85355C10.2164 7.92347 10.3055 7.97109 10.4025 7.99039C10.4995 8.00968 10.6 7.99979 10.6914 7.96194C10.7827 7.9241 10.8608 7.86001 10.9158 7.77779C10.9707 7.69556 11 7.59889 11 7.5C11 7.36739 10.9473 7.24022 10.8536 7.14645C10.7598 7.05268 10.6326 7 10.5 7Z" fill="#6772E5"/>
<path d="M1.52588e-05 5H1.00102V10H1.52588e-05V5ZM19.999 5H21V10H19.999V5Z" fill="#EAEEF3"/>
</svg>
