<svg width="348" height="111" viewBox="0 0 348 111" fill="none" xmlns="http://www.w3.org/2000/svg">
<path d="M98.2742 57.9096C96.4054 41.8972 93.6753 29.8911 91.143 21.3614C89.0667 14.3672 88.0283 10.8702 83.7713 7.69306C79.5142 4.51599 75.1627 4.51599 66.4598 4.51599H37.5396C28.8367 4.51599 24.4852 4.51599 20.2279 7.69306C15.9707 10.8702 14.9325 14.3672 12.8562 21.3614C10.3241 29.8911 7.59365 41.8972 5.72496 57.9096C3.52261 76.7811 2.42144 86.2168 8.78517 93.3661C15.149 100.516 25.462 100.516 46.0881 100.516H57.911" stroke="white" stroke-width="8" stroke-linecap="round" stroke-linejoin="round"/>
<path d="M35.9995 25.8494C35.9995 34.6859 43.163 41.8494 51.9995 41.8494C60.8363 41.8494 67.9995 34.6859 67.9995 25.8494" stroke="white" stroke-width="8" stroke-linecap="round" stroke-linejoin="round"/>
<path d="M86.6662 105.849C86.6662 105.849 67.9995 94.5555 67.9995 83.627C67.9995 78.227 71.9291 73.8494 77.3328 73.8494C80.1328 73.8494 82.9328 74.7907 86.6662 78.5555C90.3995 74.7907 93.1995 73.8494 95.9995 73.8494C101.403 73.8494 105.333 78.227 105.333 83.627C105.333 94.5555 86.6662 105.849 86.6662 105.849Z" stroke="#FF385C" stroke-width="8" stroke-linecap="round" stroke-linejoin="round"/>
<path d="M332.272 98.384C327.601 98.384 323.757 96.8547 320.74 93.796C317.743 90.7373 316.245 86.821 316.245 82.047V80.9C316.245 76.1673 317.733 72.2613 320.709 69.182C323.705 66.1027 327.477 64.563 332.024 64.563C336.55 64.563 340.208 65.958 342.998 68.748C345.788 71.538 347.183 75.0513 347.183 79.288V82.109C347.183 82.3777 347.09 82.6153 346.904 82.822C346.718 83.008 346.449 83.101 346.098 83.101H320.058V78.482H340.053V78.048C339.908 75.94 339.112 74.2143 337.666 72.871C336.24 71.5277 334.359 70.856 332.024 70.856C329.564 70.856 327.518 71.755 325.886 73.553C324.274 75.351 323.468 77.7587 323.468 80.776V82.047C323.468 85.1677 324.356 87.658 326.134 89.518C327.911 91.3573 330.122 92.277 332.768 92.277C334.049 92.277 335.144 92.1013 336.054 91.75C336.984 91.3987 337.821 90.913 338.565 90.293C339.309 89.673 340.063 88.7637 340.828 87.565C340.993 87.3377 341.189 87.2033 341.417 87.162C341.665 87.1 341.892 87.1413 342.099 87.286L345.85 89.394C346.077 89.518 346.222 89.704 346.284 89.952C346.346 90.2 346.294 90.4583 346.129 90.727C345.116 92.5663 343.959 94.0233 342.657 95.098C341.355 96.1727 339.887 96.989 338.255 97.547C336.622 98.105 334.628 98.384 332.272 98.384Z" fill="white"/>
<path d="M266.373 97.64C266.043 97.64 265.764 97.5263 265.536 97.299C265.33 97.0717 265.226 96.803 265.226 96.493V54.705C265.226 54.209 265.392 53.7957 265.722 53.465C266.053 53.1137 266.456 52.938 266.931 52.938H273.844C274.196 52.938 274.516 53.0517 274.805 53.279C275.115 53.5063 275.332 53.7647 275.456 54.054L288.042 86.542H288.135L300.659 54.054C300.783 53.7647 300.99 53.5063 301.279 53.279C301.589 53.0517 301.92 52.938 302.271 52.938H309.153C309.608 52.938 310.001 53.1137 310.331 53.465C310.662 53.7957 310.827 54.1987 310.827 54.674V96.493C310.827 96.803 310.714 97.0717 310.486 97.299C310.28 97.5263 310.021 97.64 309.711 97.64H304.41C304.1 97.64 303.832 97.5263 303.604 97.299C303.398 97.0717 303.294 96.803 303.294 96.493V71.507L303.449 66.113H303.294L291.328 96.803C291.246 97.0303 291.091 97.2267 290.863 97.392C290.657 97.5573 290.419 97.64 290.15 97.64H285.903C285.635 97.64 285.387 97.5573 285.159 97.392C284.953 97.2267 284.808 97.0303 284.725 96.803L272.821 66.206H272.697L272.852 71.6V96.493C272.852 96.803 272.739 97.0717 272.511 97.299C272.284 97.5263 272.015 97.64 271.705 97.64H266.373Z" fill="white"/>
<path d="M251.854 97.64C251.544 97.64 251.275 97.5263 251.048 97.299C250.841 97.0717 250.738 96.803 250.738 96.493V54.147C250.738 53.837 250.841 53.5683 251.048 53.341C251.275 53.1137 251.544 53 251.854 53H257.155C257.465 53 257.734 53.1137 257.961 53.341C258.188 53.5683 258.302 53.837 258.302 54.147V96.493C258.302 96.803 258.188 97.0717 257.961 97.299C257.734 97.5263 257.465 97.64 257.155 97.64H251.854Z" fill="white"/>
<path d="M237.578 97.64C237.268 97.64 237 97.5263 236.772 97.299C236.545 97.0716 236.431 96.803 236.431 96.493V66.454C236.431 66.144 236.545 65.8753 236.772 65.648C237 65.4206 237.268 65.307 237.578 65.307H242.879C243.189 65.307 243.448 65.4206 243.654 65.648C243.882 65.8753 243.995 66.144 243.995 66.454V96.493C243.995 96.803 243.882 97.0716 243.654 97.299C243.448 97.5263 243.189 97.64 242.879 97.64H237.578ZM240.213 60.626C238.953 60.626 237.878 60.1816 236.989 59.293C236.101 58.4043 235.656 57.3296 235.656 56.069C235.656 54.767 236.101 53.6923 236.989 52.845C237.878 51.9976 238.953 51.574 240.213 51.574C241.536 51.574 242.621 51.9976 243.468 52.845C244.336 53.6923 244.77 54.767 244.77 56.069C244.77 57.3296 244.336 58.4043 243.468 59.293C242.621 60.1816 241.536 60.626 240.213 60.626Z" fill="white"/>
<path d="M214.878 98.384C210.208 98.384 206.343 96.8443 203.284 93.765C200.226 90.665 198.696 86.759 198.696 82.047V80.9C198.696 76.126 200.226 72.22 203.284 69.182C206.343 66.1233 210.208 64.594 214.878 64.594C219.549 64.594 223.414 66.1337 226.472 69.213C229.531 72.2717 231.06 76.1673 231.06 80.9V82.047C231.06 86.759 229.531 90.665 226.472 93.765C223.414 96.8443 219.549 98.384 214.878 98.384ZM214.878 91.657C217.338 91.657 219.415 90.7787 221.109 89.022C222.804 87.2447 223.651 84.9507 223.651 82.14V80.838C223.651 77.986 222.794 75.692 221.078 73.956C219.384 72.1993 217.317 71.321 214.878 71.321C212.419 71.321 210.342 72.1993 208.647 73.956C206.973 75.692 206.136 77.986 206.136 80.838V82.14C206.136 84.9507 206.973 87.2447 208.647 89.022C210.342 90.7787 212.419 91.657 214.878 91.657Z" fill="white"/>
<path d="M164.492 110.474C164.182 110.474 163.914 110.36 163.686 110.133C163.48 109.906 163.376 109.627 163.376 109.296V66.423C163.376 66.113 163.48 65.8547 163.686 65.648C163.914 65.4207 164.172 65.307 164.461 65.307H169.514C169.804 65.307 170.052 65.4 170.258 65.586C170.465 65.772 170.568 65.9787 170.568 66.206V71.383L169.142 69.833L170.599 69.802C171.55 68.2313 172.955 66.9707 174.815 66.02C176.696 65.0693 178.794 64.594 181.108 64.594C185.2 64.594 188.6 66.0717 191.307 69.027C194.035 71.9823 195.399 75.8883 195.399 80.745V81.985C195.399 86.8417 194.025 90.789 191.276 93.827C188.548 96.865 185.107 98.384 180.953 98.384C178.804 98.384 176.82 97.95 175.001 97.082C173.203 96.214 171.85 95.036 170.94 93.548V93.61V109.296C170.94 109.627 170.827 109.906 170.599 110.133C170.393 110.36 170.124 110.474 169.793 110.474H164.492ZM179.31 91.75C181.79 91.75 183.847 90.8613 185.479 89.084C187.133 87.3067 187.959 84.961 187.959 82.047V80.838C187.959 77.8827 187.133 75.537 185.479 73.801C183.826 72.0443 181.78 71.166 179.341 71.166C176.861 71.166 174.795 72.065 173.141 73.863C171.509 75.6403 170.692 77.955 170.692 80.807V82.078C170.692 84.93 171.519 87.255 173.172 89.053C174.826 90.851 176.872 91.75 179.31 91.75Z" fill="white"/>
<path d="M143.174 98.384C140.404 98.384 137.997 97.9603 135.951 97.113C133.925 96.2657 132.251 95.1186 130.929 93.672C129.627 92.2046 128.686 90.7063 128.108 89.177C127.55 87.627 127.333 86.728 127.457 86.48C127.581 86.232 127.767 86.0667 128.015 85.984L132.882 84.124C133.13 84.0413 133.367 84.0413 133.595 84.124C133.822 84.2067 134.163 84.775 134.618 85.829C135.072 86.8623 135.692 87.8336 136.478 88.743C137.284 89.6523 138.265 90.3757 139.423 90.913C140.58 91.4503 141.923 91.719 143.453 91.719C145.664 91.719 147.431 91.1817 148.754 90.107C150.076 89.0117 150.738 87.5133 150.738 85.612V85.333C150.738 83.5557 150.056 82.109 148.692 80.993C147.348 79.877 144.827 78.6473 141.128 77.304C136.581 75.6713 133.388 73.8423 131.549 71.817C129.73 69.771 128.821 67.291 128.821 64.377V64.191C128.821 60.719 130.143 57.867 132.789 55.635C135.455 53.3823 138.927 52.256 143.205 52.256C145.602 52.256 147.689 52.5866 149.467 53.248C151.265 53.9093 152.773 54.86 153.993 56.1C155.233 57.34 156.101 58.5696 156.597 59.789C157.093 60.9876 157.289 61.7007 157.186 61.928C157.082 62.1553 156.917 62.3206 156.69 62.424L151.978 64.253C151.75 64.3563 151.533 64.377 151.327 64.315C151.141 64.253 150.851 63.8707 150.459 63.168C150.066 62.4653 149.518 61.7523 148.816 61.029C148.134 60.3057 147.328 59.7683 146.398 59.417C145.468 59.045 144.372 58.859 143.112 58.859C141.169 58.859 139.588 59.3136 138.369 60.223C137.149 61.1116 136.54 62.3103 136.54 63.819V64.005C136.54 65.369 137.067 66.5573 138.121 67.57C139.195 68.5827 141.872 69.8433 146.15 71.352C150.531 72.8813 153.683 74.762 155.605 76.994C157.527 79.2053 158.488 81.892 158.488 85.054V85.302C158.488 89.332 157.062 92.525 154.21 94.881C151.358 97.2163 147.679 98.384 143.174 98.384Z" fill="white"/>
<path d="M209.209 57.474C208.795 57.474 208.485 57.319 208.279 57.009C208.072 56.699 208.072 56.3477 208.279 55.955L214.727 41.323L214.758 44.826L202.172 13.888C201.986 13.4747 201.996 13.113 202.203 12.803C202.43 12.4723 202.73 12.307 203.102 12.307H208.62C208.847 12.307 209.054 12.3793 209.24 12.524C209.446 12.6687 209.591 12.8443 209.674 13.051L216.99 32.178L217.765 34.782H217.92L218.726 32.147L225.825 13.051C225.908 12.8443 226.042 12.679 226.228 12.555C226.414 12.4103 226.62 12.338 226.848 12.338H232.273C232.665 12.338 232.965 12.493 233.172 12.803C233.379 13.0923 233.399 13.4437 233.234 13.857L215.781 56.792C215.719 56.978 215.584 57.133 215.378 57.257C215.171 57.4017 214.965 57.474 214.758 57.474H209.209Z" fill="white"/>
<path d="M186.172 45.384C181.501 45.384 177.657 43.8547 174.64 40.796C171.643 37.7373 170.145 33.821 170.145 29.047V27.9C170.145 23.1673 171.633 19.2613 174.609 16.182C177.606 13.1027 181.377 11.563 185.924 11.563C190.45 11.563 194.108 12.958 196.898 15.748C199.688 18.538 201.083 22.0513 201.083 26.288V29.109C201.083 29.3777 200.99 29.6153 200.804 29.822C200.618 30.008 200.349 30.101 199.998 30.101H173.958V25.482H193.953V25.048C193.808 22.94 193.013 21.2143 191.566 19.871C190.14 18.5277 188.259 17.856 185.924 17.856C183.465 17.856 181.419 18.755 179.786 20.553C178.174 22.351 177.368 24.7587 177.368 27.776V29.047C177.368 32.1677 178.257 34.658 180.034 36.518C181.811 38.3573 184.023 39.277 186.668 39.277C187.949 39.277 189.045 39.1013 189.954 38.75C190.884 38.3987 191.721 37.913 192.465 37.293C193.209 36.673 193.963 35.7637 194.728 34.565C194.893 34.3377 195.09 34.2033 195.317 34.162C195.565 34.1 195.792 34.1413 195.999 34.286L199.75 36.394C199.977 36.518 200.122 36.704 200.184 36.952C200.246 37.2 200.194 37.4583 200.029 37.727C199.016 39.5663 197.859 41.0233 196.557 42.098C195.255 43.1727 193.788 43.989 192.155 44.547C190.522 45.105 188.528 45.384 186.172 45.384Z" fill="white"/>
<path d="M157.744 44.64C157.413 44.64 157.134 44.5263 156.907 44.299C156.679 44.051 156.566 43.772 156.566 43.462V1.178C156.566 0.868 156.679 0.599334 156.907 0.372003C157.134 0.124001 157.413 0 157.744 0H163.262C163.592 0 163.871 0.124001 164.099 0.372003C164.326 0.599334 164.44 0.868 164.44 1.178V43.462C164.44 43.772 164.326 44.051 164.099 44.299C163.871 44.5263 163.592 44.64 163.262 44.64H157.744ZM131.301 44.64C130.97 44.64 130.681 44.5263 130.433 44.299C130.205 44.051 130.092 43.772 130.092 43.462V1.178C130.092 0.868 130.205 0.599334 130.433 0.372003C130.681 0.124001 130.97 0 131.301 0H136.819C137.129 0 137.397 0.124001 137.625 0.372003C137.873 0.599334 137.997 0.868 137.997 1.178V43.462C137.997 43.772 137.873 44.051 137.625 44.299C137.397 44.5263 137.129 44.64 136.819 44.64H131.301ZM134.401 25.606V18.29H160.193V25.606H134.401Z" fill="white"/>
</svg>
