<svg width="112" height="42" viewBox="0 0 112 42" fill="none" xmlns="http://www.w3.org/2000/svg">
<path d="M1.20985 24.4571C1.37966 24.0963 1.576 23.7089 1.79886 23.295C2.02173 22.8705 2.26052 22.4407 2.51522 22.0056C2.76993 21.5598 3.04056 21.1194 3.3271 20.6843C3.61365 20.2491 3.9108 19.8406 4.21857 19.4585C4.52634 19.0871 4.83411 18.8217 5.14188 18.6625C5.46027 18.4927 5.75742 18.4078 6.03335 18.4078C6.30929 18.4078 6.54807 18.4662 6.74972 18.5829C6.96197 18.6891 7.13178 18.8377 7.25913 19.0287C7.39709 19.2197 7.49792 19.4426 7.56159 19.6973C7.63588 19.952 7.67303 20.2279 7.67303 20.5251C7.67303 20.7692 7.64649 21.0982 7.59343 21.5121C7.55098 21.9154 7.52975 22.3399 7.52975 22.7856C7.52975 23.0403 7.54037 23.295 7.56159 23.5497C7.59343 23.7938 7.64119 24.0167 7.70486 24.2183C7.77915 24.4094 7.88528 24.5685 8.02325 24.6959C8.16121 24.8126 8.34163 24.871 8.5645 24.871C8.81921 24.871 9.07391 24.802 9.32862 24.6641C9.58332 24.5155 9.83272 24.3244 10.0768 24.091C10.3209 23.8469 10.5544 23.5816 10.7773 23.295C11.0001 22.9979 11.2018 22.706 11.3822 22.4195C11.5626 22.1223 11.7218 21.8411 11.8598 21.5757C11.9977 21.2998 12.1092 21.0716 12.1941 20.8912C12.3002 20.6471 12.4859 20.5251 12.7512 20.5251C12.9317 20.5251 13.0749 20.5888 13.1811 20.7161C13.2872 20.8435 13.3402 20.9814 13.3402 21.13C13.3402 21.2149 13.3243 21.2945 13.2925 21.3688C13.25 21.4537 13.1651 21.6288 13.0378 21.8941C12.921 22.1594 12.7565 22.4672 12.5443 22.8174C12.3426 23.1677 12.1039 23.5338 11.8279 23.9159C11.552 24.2979 11.2442 24.6534 10.9046 24.9824C10.5756 25.3008 10.2148 25.5661 9.82211 25.7784C9.44005 25.98 9.03677 26.0809 8.61226 26.0809C8.12407 26.0809 7.7314 25.98 7.43424 25.7784C7.13708 25.5661 6.9036 25.3008 6.7338 24.9824C6.57461 24.6641 6.46317 24.3085 6.3995 23.9159C6.34643 23.5232 6.3199 23.1411 6.3199 22.7697C6.3199 22.5787 6.32521 22.377 6.33582 22.1648C6.35704 21.9419 6.37827 21.7243 6.3995 21.5121C6.42072 21.2998 6.43664 21.1035 6.44725 20.9231C6.46848 20.732 6.47909 20.5728 6.47909 20.4455C6.47909 20.1165 6.43133 19.8936 6.33582 19.7769C6.25092 19.6601 6.1501 19.6018 6.03335 19.6018C5.86355 19.6018 5.66721 19.7026 5.44435 19.9042C5.23209 20.0953 5.00392 20.35 4.75982 20.6684C4.52634 20.9867 4.28756 21.3476 4.04346 21.7509C3.80998 22.1435 3.58181 22.5362 3.35894 22.9289C3.13607 23.3215 2.93443 23.6983 2.75401 24.0591C2.57359 24.4094 2.42502 24.7012 2.30828 24.9347C2.08541 25.3804 1.85723 25.6776 1.62375 25.8262C1.40088 25.9853 1.19924 26.0649 1.01883 26.0649C0.689829 26.0649 0.435123 25.9376 0.254706 25.6829C0.0849021 25.4176 0 25.0992 0 24.7277V23.7248C0 21.719 0 19.8087 0 17.9939C0.0106128 16.1685 0.0371447 14.4758 0.0795957 12.9157C0.13266 11.345 0.212255 9.92824 0.318383 8.66532C0.435123 7.39179 0.604927 6.30929 0.827795 5.41782C1.05066 4.51573 1.3319 3.8206 1.67151 3.33241C2.02173 2.84422 2.45685 2.60013 2.97688 2.60013C3.42262 2.60013 3.79937 2.72217 4.10714 2.96627C4.41491 3.21036 4.66431 3.54466 4.85534 3.96917C5.04637 4.38307 5.18433 4.87126 5.26924 5.43374C5.35414 5.9856 5.39659 6.5693 5.39659 7.18484C5.39659 8.43715 5.27985 9.66823 5.04637 10.8781C4.8235 12.0773 4.52104 13.25 4.13898 14.3962C3.75692 15.5424 3.31118 16.662 2.80177 17.7552C2.29236 18.8377 1.75641 19.8936 1.19394 20.9231C1.19394 21.1141 1.19394 21.3423 1.19394 21.6076C1.19394 21.8729 1.19394 22.1382 1.19394 22.4035C1.19394 22.6689 1.19394 22.9183 1.19394 23.1517C1.19394 23.3852 1.19394 23.5709 1.19394 23.7089L1.20985 24.4571ZM1.20985 18.5829C1.65559 17.6066 2.05888 16.6567 2.41971 15.7334C2.79116 14.7995 3.10423 13.8709 3.35894 12.9476C3.62426 12.0243 3.83121 11.0903 3.97979 10.1458C4.12836 9.19065 4.20265 8.19836 4.20265 7.16892C4.20265 6.99912 4.19204 6.72849 4.17082 6.35705C4.1602 5.9856 4.11245 5.60885 4.02754 5.22679C3.95325 4.84473 3.83121 4.51043 3.6614 4.22388C3.50221 3.93734 3.27404 3.79406 2.97688 3.79406C2.7434 3.79406 2.54176 3.95326 2.37195 4.27164C2.20215 4.57941 2.05357 5.00392 1.92622 5.54517C1.79886 6.07581 1.69274 6.69665 1.60783 7.40771C1.52293 8.11876 1.45395 8.87227 1.40088 9.66823C1.34782 10.4642 1.30537 11.2814 1.27353 12.1198C1.25231 12.9582 1.23639 13.7754 1.22577 14.5713C1.21516 15.3567 1.20985 16.0943 1.20985 16.7841C1.20985 17.4739 1.20985 18.0735 1.20985 18.5829Z" fill="white"/>
<path d="M14.1203 24.0591C14.3431 24.3669 14.6297 24.6163 14.9799 24.8073C15.3301 24.9877 15.76 25.078 16.2694 25.078C16.7894 25.078 17.2617 24.9559 17.6862 24.7118C18.1107 24.4571 18.498 24.1281 18.8483 23.7248C19.1985 23.3215 19.5116 22.8705 19.7875 22.3717C20.0634 21.8729 20.3128 21.3741 20.5357 20.8753C20.5888 20.7586 20.663 20.6737 20.7586 20.6206C20.8541 20.5569 20.9602 20.5251 21.0769 20.5251C21.2574 20.5251 21.4006 20.5888 21.5068 20.7161C21.6235 20.8435 21.6819 20.9814 21.6819 21.13C21.6819 21.1831 21.6766 21.2308 21.666 21.2733C21.6553 21.3051 21.6394 21.3423 21.6182 21.3847C20.8859 22.9979 20.0847 24.213 19.2144 25.0302C18.3548 25.8474 17.3784 26.2666 16.2853 26.2878C15.5848 26.2878 14.9799 26.1498 14.4705 25.8739C13.9611 25.6086 13.5419 25.2637 13.2129 24.8392C12.8839 24.404 12.6398 23.9159 12.4806 23.3746C12.3214 22.8334 12.2418 22.2921 12.2418 21.7509C12.2418 21.2096 12.3055 20.7108 12.4328 20.2545C12.5708 19.7981 12.7618 19.4001 13.0059 19.0605C13.2606 18.7209 13.5578 18.4556 13.8974 18.2646C14.2476 18.0735 14.6297 17.978 15.0436 17.978C15.2877 17.978 15.5265 18.0311 15.76 18.1372C16.004 18.2327 16.2216 18.376 16.4126 18.567C16.6037 18.7474 16.7576 18.9703 16.8743 19.2356C16.991 19.5009 17.0494 19.8034 17.0494 20.143C17.0494 20.5781 16.9751 20.9867 16.8265 21.3688C16.678 21.7509 16.471 22.1064 16.2057 22.4354C15.951 22.7644 15.6432 23.0668 15.2824 23.3428C14.9215 23.6187 14.5342 23.8575 14.1203 24.0591ZM13.6427 23.0244C13.9717 22.8864 14.2689 22.7113 14.5342 22.4991C14.8101 22.2868 15.0436 22.0533 15.2346 21.7986C15.4256 21.5439 15.5742 21.2786 15.6804 21.0027C15.7865 20.7161 15.8395 20.4296 15.8395 20.143C15.8395 19.8246 15.76 19.5859 15.6008 19.4267C15.4416 19.2569 15.2558 19.172 15.0436 19.172C14.757 19.172 14.513 19.2516 14.3113 19.4107C14.1097 19.5699 13.9452 19.7769 13.8178 20.0316C13.6905 20.2863 13.5949 20.5728 13.5313 20.8912C13.4782 21.199 13.4517 21.5068 13.4517 21.8145C13.4517 22.0056 13.4676 22.2072 13.4994 22.4195C13.5419 22.6317 13.5896 22.8334 13.6427 23.0244Z" fill="white"/>
<path d="M26.4735 26.0331C26.845 25.6617 27.2217 25.2849 27.6038 24.9028C27.9859 24.5102 28.3573 24.1016 28.7181 23.6771C29.079 23.2526 29.4133 22.8121 29.721 22.3558C30.0394 21.8888 30.3207 21.3953 30.5648 20.8753C30.6178 20.7586 30.6921 20.6737 30.7876 20.6206C30.8831 20.5569 30.9893 20.5251 31.106 20.5251C31.2864 20.5251 31.4297 20.5888 31.5358 20.7161C31.6526 20.8435 31.7109 20.9867 31.7109 21.1459C31.7109 21.2308 31.695 21.3104 31.6632 21.3847C31.3342 22.0745 30.9574 22.706 30.5329 23.2791C30.1084 23.8522 29.6627 24.3987 29.1957 24.9188C28.7287 25.4282 28.2565 25.9217 27.7789 26.3992C27.3013 26.8874 26.845 27.3756 26.4099 27.8638C26.3674 28.5961 26.3674 29.3284 26.4099 30.0606C26.4523 30.8035 26.4735 31.5889 26.4735 32.4167C26.4735 33.0959 26.4523 33.7751 26.4099 34.4543C26.3674 35.1335 26.2984 35.7809 26.2029 36.3965C26.1074 37.0226 25.9747 37.6063 25.8049 38.1476C25.6457 38.6888 25.4388 39.1558 25.1841 39.5485C24.9294 39.9517 24.6322 40.2648 24.2926 40.4877C23.953 40.7212 23.555 40.8379 23.0987 40.8379C22.3452 40.8379 21.7668 40.5779 21.3635 40.0579C20.9602 39.5378 20.7586 38.8109 20.7586 37.8769C20.7586 37.3675 20.8116 36.821 20.9178 36.2373C21.0345 35.6536 21.1937 35.0486 21.3953 34.4225C21.597 33.807 21.8358 33.1808 22.1117 32.544C22.3982 31.9073 22.706 31.2864 23.035 30.6815C23.364 30.0766 23.7142 29.4982 24.0857 28.9463C24.4571 28.4051 24.8339 27.9116 25.2159 27.4658C25.2371 26.9564 25.2584 26.4258 25.2796 25.8739C25.3114 25.3327 25.3433 24.8286 25.3751 24.3616C25.0992 24.8498 24.7543 25.2425 24.3404 25.5396C23.9371 25.8368 23.4913 25.9853 23.0032 25.9853C22.1966 25.9853 21.5651 25.7147 21.1088 25.1735C20.6524 24.6322 20.4243 23.8893 20.4243 22.9448C20.4243 22.255 20.4879 21.6288 20.6153 21.0663C20.7533 20.4932 20.8965 20.0051 21.0451 19.6018C21.2043 19.1879 21.3476 18.8748 21.4749 18.6625C21.6023 18.4397 21.666 18.3335 21.666 18.3442C21.7827 18.1637 21.9472 18.0735 22.1594 18.0735C22.3399 18.0735 22.4831 18.1372 22.5893 18.2646C22.706 18.3813 22.7644 18.5193 22.7644 18.6785C22.7644 18.7952 22.7325 18.9013 22.6689 18.9968C22.6795 18.9862 22.6264 19.0764 22.5097 19.2675C22.4035 19.4479 22.2815 19.7132 22.1435 20.0634C22.0162 20.4136 21.8941 20.8329 21.7774 21.321C21.6713 21.8092 21.6182 22.3452 21.6182 22.9289C21.6182 23.5126 21.7243 23.9689 21.9366 24.2979C22.1488 24.6269 22.4937 24.7914 22.9713 24.7914C23.5763 24.7914 24.1228 24.3457 24.611 23.4542C25.0992 22.5521 25.5131 21.2467 25.8527 19.5381C25.8739 19.4001 25.9376 19.2887 26.0437 19.2038C26.1498 19.1083 26.2772 19.0605 26.4258 19.0605C26.5956 19.0605 26.7389 19.1189 26.8556 19.2356C26.9723 19.3524 27.0307 19.4956 27.0307 19.6654C27.0307 19.6973 27.0095 19.8883 26.967 20.2385C26.9246 20.5781 26.8715 21.0345 26.8078 21.6076C26.7548 22.1807 26.6964 22.8493 26.6327 23.6134C26.569 24.3669 26.516 25.1735 26.4735 26.0331ZM25.2 29.408C24.7224 30.0978 24.282 30.8248 23.8787 31.5889C23.486 32.353 23.1464 33.1118 22.8599 33.8653C22.5733 34.6188 22.3505 35.3405 22.1913 36.0303C22.0321 36.7202 21.9525 37.3357 21.9525 37.8769C21.9525 38.4288 22.0427 38.8586 22.2231 39.1664C22.4035 39.4848 22.6901 39.644 23.0828 39.644C23.433 39.644 23.7407 39.4689 24.0061 39.1186C24.282 38.779 24.5102 38.2908 24.6906 37.6541C24.8816 37.0173 25.0249 36.2426 25.1204 35.3299C25.2159 34.4278 25.2637 33.4143 25.2637 32.2893C25.2637 31.833 25.2531 31.3713 25.2318 30.9044C25.2212 30.4374 25.2106 29.9386 25.2 29.408Z" fill="white"/>
<path d="M32.3477 19.9202C32.284 20.09 32.2044 20.281 32.1089 20.4932C32.024 20.7055 31.9232 20.9284 31.8064 21.1618C31.7109 21.3423 31.6101 21.4855 31.504 21.5917C31.4085 21.6872 31.2811 21.7349 31.1219 21.7349C30.9415 21.7349 30.7982 21.6819 30.6921 21.5757C30.586 21.459 30.5329 21.3263 30.5329 21.1778C30.5329 21.1247 30.5382 21.0823 30.5488 21.0504C30.5594 21.008 30.586 20.9443 30.6284 20.8594C30.9044 20.3287 31.106 19.8671 31.2334 19.4744C31.3713 19.0711 31.4828 18.6519 31.5677 18.2168C31.4934 17.9727 31.4403 17.7658 31.4085 17.596C31.3766 17.4262 31.3607 17.251 31.3607 17.0706C31.3607 16.7204 31.435 16.4392 31.5836 16.2269C31.7322 16.004 31.9391 15.8926 32.2044 15.8926C32.4485 15.8926 32.6395 15.9987 32.7775 16.211C32.9261 16.4232 33.0004 16.6833 33.0004 16.991C33.0004 17.1608 32.9845 17.3306 32.9526 17.5004C32.9208 17.6702 32.8783 17.8825 32.8253 18.1372C33.0694 18.7421 33.3135 19.2781 33.5576 19.745C33.8016 20.212 34.0192 20.6418 34.2102 21.0345C34.4013 21.4166 34.5551 21.7774 34.6719 22.117C34.7992 22.4566 34.8629 22.7962 34.8629 23.1358C34.8629 23.5816 34.7727 24.0061 34.5923 24.4094C34.4119 24.8126 34.1147 25.1522 33.7008 25.4282C33.7539 25.4388 33.807 25.4441 33.86 25.4441C33.9131 25.4441 33.9661 25.4441 34.0192 25.4441C34.6241 25.4441 35.1813 25.3061 35.6907 25.0302C36.2001 24.7543 36.6565 24.3987 37.0598 23.9636C37.4737 23.5179 37.8398 23.0297 38.1582 22.4991C38.4766 21.9578 38.7525 21.4219 38.986 20.8912C39.0921 20.6471 39.2407 20.5251 39.4317 20.5251C39.6121 20.5251 39.7501 20.5888 39.8456 20.7161C39.9517 20.8435 40.0048 20.9814 40.0048 21.13C40.0048 21.2149 39.9889 21.2945 39.957 21.3688C39.8403 21.6553 39.6864 21.9843 39.4954 22.3558C39.315 22.7166 39.0921 23.0934 38.8268 23.486C38.5721 23.8681 38.2749 24.2449 37.9353 24.6163C37.5957 24.9877 37.2136 25.322 36.7891 25.6192C36.3752 25.9058 35.9189 26.1339 35.4201 26.3037C34.9213 26.4841 34.3747 26.5744 33.7804 26.5744C33.0694 26.5744 32.4061 26.447 31.7905 26.1923C31.1856 25.9482 30.6921 25.5396 30.31 24.9665C30.2464 24.871 30.2145 24.7702 30.2145 24.6641C30.2145 24.5049 30.2729 24.3669 30.3896 24.2502C30.517 24.1228 30.6603 24.0591 30.8195 24.0591C30.9893 24.0591 31.1325 24.1175 31.2493 24.2342C31.2599 24.2555 31.297 24.2926 31.3607 24.3457C31.4244 24.3881 31.4987 24.4412 31.5836 24.5049C31.6791 24.5579 31.7852 24.6057 31.902 24.6481C32.0293 24.6906 32.1567 24.7118 32.284 24.7118C32.5387 24.7118 32.751 24.6588 32.9208 24.5526C33.1012 24.4465 33.2445 24.3191 33.3506 24.1706C33.4567 24.0114 33.531 23.8469 33.5735 23.6771C33.6265 23.4967 33.6531 23.3428 33.6531 23.2154C33.6531 22.9501 33.6106 22.6848 33.5257 22.4195C33.4408 22.1541 33.3294 21.8888 33.1914 21.6235C33.0641 21.3582 32.9208 21.0876 32.7616 20.8116C32.613 20.5251 32.4751 20.2279 32.3477 19.9202Z" fill="white"/>
<path d="M47.0251 21.3688C47.0251 22.3452 46.85 23.1783 46.4998 23.8681C46.1496 24.5579 45.7198 25.0833 45.2104 25.4441H45.274C45.9002 25.4441 46.468 25.3061 46.9774 25.0302C47.4974 24.7437 47.9644 24.3828 48.3783 23.9477C48.7922 23.502 49.1636 23.0085 49.4926 22.4672C49.8216 21.926 50.1135 21.4006 50.3682 20.8912C50.4212 20.7745 50.4955 20.6843 50.591 20.6206C50.6972 20.5569 50.8086 20.5251 50.9253 20.5251C51.1058 20.5251 51.249 20.5888 51.3552 20.7161C51.4613 20.8435 51.5143 20.9814 51.5143 21.13C51.5143 21.2149 51.4984 21.2945 51.4666 21.3688C51.1907 21.9843 50.8617 22.6052 50.4796 23.2313C50.0975 23.8469 49.6518 24.404 49.1424 24.9028C48.633 25.4016 48.0599 25.8049 47.4231 26.1127C46.7864 26.4311 46.0806 26.5903 45.3059 26.5903C44.7434 26.5903 44.1968 26.5001 43.6662 26.3196C43.1356 26.1498 42.6686 25.8792 42.2653 25.5078C42.1167 25.391 41.9894 25.269 41.8833 25.1416C41.7771 25.0037 41.6922 24.8763 41.6286 24.7596C41.6073 24.7383 41.5967 24.7171 41.5967 24.6959C41.533 24.6004 41.5012 24.4996 41.5012 24.3934C41.5012 24.2555 41.549 24.1281 41.6445 24.0114C41.6551 23.9901 41.6657 23.9795 41.6763 23.9795C41.6869 23.9689 41.6975 23.9583 41.7082 23.9477C41.8143 23.8522 41.931 23.7991 42.0584 23.7885H42.1061C42.1592 23.7885 42.1963 23.7938 42.2176 23.8044C42.2282 23.8044 42.2335 23.8097 42.2335 23.8203C42.2441 23.8203 42.2547 23.8203 42.2653 23.8203C42.2972 23.8203 42.3343 23.831 42.3768 23.8522C42.3874 23.8628 42.398 23.8681 42.4086 23.8681C42.5041 23.9318 42.5837 24.0114 42.6474 24.1069C42.7217 24.2342 42.8066 24.351 42.9021 24.4571C42.987 24.542 43.0878 24.6216 43.2046 24.6959C43.3213 24.7596 43.454 24.7914 43.6025 24.7914C43.8679 24.7914 44.1332 24.7118 44.3985 24.5526C44.6638 24.3934 44.9026 24.1653 45.1148 23.8681C45.3271 23.5709 45.4969 23.2101 45.6243 22.7856C45.7622 22.3611 45.8312 21.8888 45.8312 21.3688C45.8312 20.9867 45.7888 20.663 45.7039 20.3977C45.6296 20.1218 45.5287 19.8989 45.4014 19.7291C45.2847 19.5593 45.1573 19.4373 45.0193 19.363C44.8814 19.2781 44.7487 19.2356 44.6214 19.2356C44.3348 19.2356 44.043 19.3842 43.7458 19.6814C43.4593 19.9785 43.1727 20.3553 42.8862 20.8116C42.5996 21.268 42.3131 21.7721 42.0265 22.3239C41.7506 22.8758 41.4694 23.4118 41.1828 23.9318C41.1616 25.651 41.1298 27.2907 41.0873 28.8508C41.0555 30.4109 40.9918 31.8595 40.8963 33.1967C40.8114 34.5339 40.6893 35.7438 40.5301 36.8263C40.3709 37.9088 40.1534 38.8321 39.8775 39.5962C39.6015 40.3709 39.2619 40.9653 38.8586 41.3792C38.4553 41.7931 37.9618 42 37.3781 42C37.1977 42 36.9908 41.9629 36.7573 41.8886C36.5238 41.8143 36.3063 41.6604 36.1046 41.4269C35.903 41.204 35.7332 40.8804 35.5952 40.4558C35.4572 40.0313 35.3883 39.4636 35.3883 38.7525C35.3883 37.8504 35.4997 36.8051 35.7226 35.6164C35.9454 34.4278 36.2638 33.1649 36.6777 31.8277C37.081 30.5011 37.5639 29.1373 38.1263 27.7365C38.6888 26.3356 39.3097 24.9718 39.9889 23.6452C39.9889 23.2738 39.9889 22.9076 39.9889 22.5468C39.9995 22.186 40.0048 21.8358 40.0048 21.4961C39.8668 21.6553 39.7023 21.7349 39.5113 21.7349C39.3309 21.7349 39.1876 21.6713 39.0815 21.5439C38.9754 21.4166 38.9223 21.2786 38.9223 21.13C38.9223 21.0557 38.9382 20.9761 38.9701 20.8912C39.2248 20.3075 39.4211 19.7557 39.5591 19.2356C39.697 18.705 39.7979 18.2433 39.8615 17.8507C39.9358 17.4474 39.9783 17.129 39.9889 16.8955C39.9995 16.662 40.0048 16.54 40.0048 16.5294C40.0048 16.3702 40.0632 16.2322 40.1799 16.1155C40.2967 15.9987 40.4399 15.9404 40.6097 15.9404C40.7689 15.9404 40.9069 15.9987 41.0236 16.1155C41.1404 16.2216 41.1987 16.3596 41.1987 16.5294V21.4166C41.4428 21.0027 41.6869 20.5941 41.931 20.1908C42.1751 19.7875 42.4298 19.4267 42.6951 19.1083C42.9711 18.7899 43.2629 18.5352 43.5707 18.3442C43.8891 18.1425 44.2393 18.0417 44.6214 18.0417C44.9822 18.0417 45.3112 18.1266 45.6083 18.2964C45.9055 18.4662 46.1602 18.6997 46.3725 18.9968C46.5847 19.294 46.7439 19.6495 46.85 20.0634C46.9668 20.4667 47.0251 20.9018 47.0251 21.3688ZM39.957 26.4788C39.437 27.6462 38.9648 28.819 38.5402 29.997C38.1263 31.175 37.7761 32.3106 37.4896 33.4037C37.1924 34.4968 36.9642 35.5209 36.8051 36.4761C36.6459 37.4312 36.5663 38.2696 36.5663 38.9913C36.5663 39.1717 36.5769 39.368 36.5981 39.5803C36.6193 39.7925 36.6618 39.9889 36.7255 40.1693C36.7891 40.3497 36.8793 40.4983 36.9961 40.615C37.1128 40.7424 37.2667 40.8061 37.4577 40.8061C37.808 40.8061 38.1104 40.5832 38.3651 40.1375C38.6198 39.7023 38.8321 39.108 39.0019 38.3545C39.1823 37.6116 39.3309 36.752 39.4476 35.7756C39.5644 34.8099 39.6546 33.7963 39.7183 32.7351C39.7926 31.6738 39.8456 30.6019 39.8775 29.5194C39.9093 28.4475 39.9358 27.434 39.957 26.4788Z" fill="white"/>
<path d="M57.7228 24.0591C57.4575 24.0591 57.224 24.0379 57.0224 23.9955C56.8632 24.3138 56.6721 24.611 56.4493 24.8869C56.2264 25.1522 55.9664 25.3857 55.6692 25.5874C55.3827 25.789 55.059 25.9482 54.6982 26.0649C54.3373 26.1817 53.9447 26.2401 53.5202 26.2401C53.0214 26.2401 52.565 26.1498 52.1511 25.9694C51.7372 25.7996 51.3764 25.5608 51.0686 25.2531C50.7608 24.9347 50.5221 24.5579 50.3522 24.1228C50.1824 23.6771 50.0975 23.1889 50.0975 22.6582C50.0975 21.979 50.2196 21.39 50.4637 20.8912C50.7078 20.3818 50.989 19.9626 51.3074 19.6336C51.6258 19.294 51.9442 19.0446 52.2625 18.8854C52.5809 18.7156 52.8197 18.6307 52.9789 18.6307C53.1593 18.6307 53.292 18.6785 53.3769 18.774C53.4724 18.8695 53.5202 18.9968 53.5202 19.156C53.5202 19.3365 53.4618 19.4744 53.345 19.5699C53.2389 19.6548 53.101 19.7397 52.9311 19.8246C52.7613 19.9095 52.5809 20.0316 52.3899 20.1908C52.1989 20.3394 52.0185 20.5304 51.8486 20.7639C51.6895 20.9973 51.5568 21.2733 51.4507 21.5917C51.3445 21.91 51.2915 22.2656 51.2915 22.6582C51.2915 23.0085 51.3445 23.3375 51.4507 23.6452C51.5568 23.9424 51.7107 24.2024 51.9123 24.4253C52.114 24.6375 52.3528 24.8073 52.6287 24.9347C52.9046 25.0514 53.2124 25.1098 53.552 25.1098C54.1569 25.1098 54.6557 24.9718 55.0484 24.6959C55.4517 24.4094 55.7595 24.0485 55.9717 23.6134C55.3456 23.2844 54.8308 22.8174 54.4275 22.2125C54.0243 21.6076 53.8226 20.9284 53.8226 20.1749C53.8226 19.5699 53.9659 19.0764 54.2524 18.6944C54.5496 18.3123 54.937 18.1213 55.4145 18.1213C55.7011 18.1213 55.9717 18.1903 56.2264 18.3282C56.4811 18.4662 56.704 18.6838 56.895 18.9809C57.0967 19.2781 57.2558 19.6601 57.3726 20.1271C57.4893 20.5941 57.5477 21.1512 57.5477 21.7986C57.5477 22.1382 57.5052 22.4937 57.4203 22.8652C57.484 22.8758 57.5477 22.8811 57.6114 22.8811C57.6751 22.8811 57.744 22.8811 57.8183 22.8811C58.1792 22.8811 58.5028 22.8387 58.7894 22.7538C59.0759 22.6689 59.336 22.5415 59.5694 22.3717C59.8029 22.2019 60.0099 21.9843 60.1903 21.719C60.3813 21.4537 60.5617 21.1459 60.7315 20.7957C60.7634 20.732 60.8323 20.6737 60.9385 20.6206C61.0446 20.5569 61.1507 20.5251 61.2569 20.5251C61.3948 20.5251 61.5222 20.5835 61.6389 20.7002C61.7663 20.8063 61.8299 20.9496 61.8299 21.13C61.8299 21.2149 61.8087 21.3104 61.7663 21.4166C61.7238 21.5121 61.6814 21.6023 61.6389 21.6872C61.4585 22.0056 61.2462 22.3133 61.0022 22.6105C60.7687 22.897 60.4874 23.1517 60.1584 23.3746C59.8401 23.5869 59.4792 23.7567 59.0759 23.884C58.6727 24.0114 58.2216 24.0697 57.7228 24.0591ZM55.0006 20.0475C55.0006 20.2491 55.0272 20.4614 55.0802 20.6843C55.1333 20.9071 55.2129 21.13 55.319 21.3529C55.4358 21.5651 55.5737 21.7721 55.7329 21.9737C55.9027 22.1648 56.0991 22.3293 56.3219 22.4672C56.3538 22.2443 56.3697 22.0268 56.3697 21.8145C56.3697 21.528 56.3485 21.2361 56.306 20.939C56.2636 20.6418 56.1999 20.3712 56.115 20.1271C56.0407 19.8724 55.9452 19.6708 55.8284 19.5222C55.7117 19.363 55.5737 19.2834 55.4145 19.2834C55.3509 19.2834 55.266 19.3311 55.1598 19.4267C55.0537 19.5222 55.0006 19.7291 55.0006 20.0475Z" fill="white"/>
<path d="M63.2945 13.3137C63.2945 13.717 63.1512 14.0619 62.8647 14.3485C62.5888 14.6244 62.2492 14.7624 61.8459 14.7624C61.4426 14.7624 61.0977 14.6244 60.8111 14.3485C60.5352 14.0619 60.3972 13.717 60.3972 13.3137C60.3972 13.1121 60.4344 12.9263 60.5087 12.7565C60.5829 12.5761 60.6838 12.4222 60.8111 12.2949C60.9491 12.1569 61.103 12.0508 61.2728 11.9765C61.4532 11.9022 61.6442 11.8651 61.8459 11.8651C62.0475 11.8651 62.2332 11.9022 62.403 11.9765C62.5835 12.0508 62.7373 12.1569 62.8647 12.2949C63.0027 12.4222 63.1088 12.5761 63.1831 12.7565C63.2574 12.9263 63.2945 13.1121 63.2945 13.3137ZM60.7156 22.6423C60.7156 21.1141 60.8111 19.5912 61.0022 18.0735C61.0234 17.925 61.0871 17.7976 61.1932 17.6915C61.3099 17.5747 61.4585 17.5164 61.6389 17.5164C61.7981 17.5164 61.9308 17.58 62.0369 17.7074C62.143 17.8241 62.1961 17.9621 62.1961 18.1213C62.1961 18.185 62.1802 18.376 62.1483 18.6944C62.1271 19.0128 62.0953 19.3948 62.0528 19.8406C62.021 20.2757 61.9891 20.7426 61.9573 21.2414C61.9361 21.7296 61.9255 22.1807 61.9255 22.5946C61.9255 23.157 61.9785 23.6134 62.0847 23.9636C62.2014 24.3032 62.3447 24.5685 62.5145 24.7596C62.6949 24.9506 62.8806 25.078 63.0716 25.1416C63.2733 25.2053 63.4643 25.2371 63.6447 25.2371C63.9419 25.2371 64.2497 25.131 64.568 24.9188C64.8864 24.7065 65.2101 24.4094 65.5391 24.0273C65.8787 23.6452 66.2183 23.1889 66.5579 22.6582C66.8975 22.117 67.2318 21.5174 67.5608 20.8594C67.6139 20.7533 67.6882 20.6737 67.7837 20.6206C67.8792 20.5569 67.9853 20.5251 68.1021 20.5251C68.2719 20.5251 68.4099 20.5888 68.516 20.7161C68.6327 20.8435 68.6911 20.9814 68.6911 21.13C68.6911 21.2361 68.6699 21.3263 68.6274 21.4006C68.5001 21.6447 68.3409 21.9419 68.1498 22.2921C67.9588 22.6423 67.7413 23.0032 67.4972 23.3746C67.2531 23.7461 66.9824 24.1175 66.6853 24.4889C66.3987 24.8498 66.091 25.1788 65.762 25.4759C65.433 25.7625 65.0881 25.996 64.7272 26.1764C64.3664 26.3568 64.0003 26.447 63.6288 26.447C63.1512 26.447 62.732 26.3462 62.3712 26.1445C62.0104 25.9429 61.7026 25.6723 61.4479 25.3327C61.2038 24.9931 61.0181 24.5951 60.8907 24.1387C60.774 23.6718 60.7156 23.173 60.7156 22.6423ZM62.403 13.3137C62.403 13.1651 62.3447 13.0378 62.2279 12.9317C62.1218 12.8149 61.9944 12.7565 61.8459 12.7565C61.6973 12.7565 61.5699 12.8149 61.4638 12.9317C61.3577 13.0378 61.3046 13.1651 61.3046 13.3137C61.3046 13.4623 61.3577 13.5896 61.4638 13.6958C61.5699 13.8019 61.6973 13.855 61.8459 13.855C61.9944 13.855 62.1218 13.8019 62.2279 13.6958C62.3447 13.5896 62.403 13.4623 62.403 13.3137Z" fill="white"/>
<path d="M76.6029 21.4006C76.4862 21.6447 76.3376 21.9366 76.1572 22.2762C75.9874 22.6052 75.791 22.9501 75.5682 23.3109C75.3453 23.6718 75.0959 24.0326 74.82 24.3934C74.544 24.7437 74.2416 25.062 73.9126 25.3486C73.5942 25.6245 73.2493 25.8474 72.8778 26.0172C72.517 26.1976 72.1296 26.2878 71.7157 26.2878C71.079 26.2878 70.5324 26.0915 70.0761 25.6988C69.6197 25.3061 69.2324 24.7914 68.914 24.1546C68.5956 23.5179 68.3356 22.7962 68.1339 21.9896C67.9429 21.1725 67.7943 20.3447 67.6882 19.5063C67.5821 18.6572 67.5078 17.8347 67.4653 17.0388C67.4335 16.2428 67.4176 15.5371 67.4176 14.9215C67.4176 14.0301 67.4441 13.1068 67.4972 12.1516C67.5608 11.1965 67.6564 10.2625 67.7837 9.34984C67.9111 8.43715 68.0703 7.57221 68.2613 6.75502C68.4629 5.93784 68.6964 5.22148 68.9617 4.60594C69.2377 3.9904 69.5507 3.50221 69.901 3.14138C70.2512 2.78055 70.6492 2.60013 71.0949 2.60013C71.4451 2.60013 71.7582 2.68503 72.0341 2.85483C72.3207 3.01403 72.5595 3.27934 72.7505 3.65079C72.9415 4.02224 73.0901 4.50512 73.1962 5.09943C73.3023 5.69375 73.3554 6.42072 73.3554 7.28036C73.3554 8.34163 73.244 9.44005 73.0211 10.5756C72.7982 11.7006 72.4958 12.8361 72.1137 13.9823C71.7317 15.1285 71.2806 16.2747 70.7606 17.4208C70.2406 18.5564 69.6834 19.6654 69.0891 20.7479C69.3544 22.0958 69.7099 23.157 70.1557 23.9318C70.6014 24.6959 71.1373 25.078 71.7635 25.078C72.188 25.078 72.5966 24.9135 72.9893 24.5845C73.3819 24.2449 73.7428 23.8469 74.0718 23.3905C74.4008 22.9342 74.6873 22.4725 74.9314 22.0056C75.1861 21.528 75.3824 21.1459 75.5204 20.8594C75.5735 20.7533 75.6478 20.6737 75.7433 20.6206C75.8388 20.5569 75.9449 20.5251 76.0617 20.5251C76.2421 20.5251 76.3854 20.5888 76.4915 20.7161C76.6082 20.8435 76.6666 20.9867 76.6666 21.1459C76.6666 21.2096 76.6454 21.2945 76.6029 21.4006ZM68.6274 15.0011C68.6274 15.6804 68.6433 16.333 68.6752 16.9592C68.707 17.5853 68.7495 18.185 68.8025 18.7581C69.2483 17.8984 69.6728 16.9857 70.0761 16.02C70.4794 15.0436 70.8349 14.0619 71.1426 13.0749C71.4504 12.0773 71.6945 11.0903 71.8749 10.114C72.066 9.12698 72.1615 8.18775 72.1615 7.29627C72.1615 6.04397 72.0607 5.14719 71.859 4.60594C71.6574 4.06469 71.3867 3.79406 71.0471 3.79406C70.8243 3.79406 70.6067 3.94795 70.3944 4.25572C70.1928 4.56349 70.0018 4.98269 69.8214 5.51333C69.6409 6.04397 69.4764 6.67012 69.3279 7.39179C69.1793 8.11346 69.0519 8.88819 68.9458 9.71598C68.8503 10.5438 68.7707 11.4087 68.707 12.3108C68.654 13.2129 68.6274 14.1097 68.6274 15.0011Z" fill="white"/>
<path d="M78.7202 25.3486C78.7202 25.5927 78.6353 25.7943 78.4655 25.9535C78.3063 26.1233 78.1046 26.2082 77.8605 26.2082C77.6164 26.2082 77.4095 26.1233 77.2397 25.9535C77.0805 25.7943 77.0009 25.5927 77.0009 25.3486C77.0009 25.1151 77.0805 24.9188 77.2397 24.7596C77.4095 24.5898 77.6164 24.5049 77.8605 24.5049C78.1046 24.5049 78.3063 24.5898 78.4655 24.7596C78.6353 24.9188 78.7202 25.1151 78.7202 25.3486Z" fill="white"/>
<path d="M85.0719 24.3934C85.2311 24.075 85.4327 23.6824 85.6768 23.2154C85.9315 22.7378 86.1915 22.2603 86.4569 21.7827C86.7328 21.3051 86.9981 20.8541 87.2528 20.4296C87.5181 20.0051 87.741 19.6814 87.9214 19.4585C88.2292 19.0871 88.5476 18.8217 88.8766 18.6625C89.2056 18.5034 89.508 18.4238 89.784 18.4238C90.0599 18.4238 90.2934 18.4821 90.4844 18.5989C90.686 18.7156 90.8505 18.8748 90.9779 19.0764C91.1053 19.2675 91.2008 19.4956 91.2644 19.761C91.3281 20.0157 91.36 20.2916 91.36 20.5888C91.36 20.7586 91.3493 20.9814 91.3281 21.2574C91.3175 21.5333 91.3016 21.8305 91.2804 22.1488C91.2698 22.4672 91.2538 22.7962 91.2326 23.1358C91.222 23.4754 91.2114 23.7938 91.2008 24.091C91.36 23.7726 91.5404 23.4224 91.742 23.0403C91.9437 22.6476 92.1453 22.2603 92.3469 21.8782C92.5592 21.4961 92.7608 21.1406 92.9519 20.8116C93.1429 20.472 93.318 20.1961 93.4772 19.9838C93.9336 19.3577 94.3581 18.9385 94.7507 18.7262C95.154 18.514 95.5096 18.4078 95.8173 18.4078C96.1782 18.4078 96.4753 18.4768 96.7088 18.6148C96.9423 18.7421 97.1227 18.9119 97.25 19.1242C97.388 19.3258 97.4835 19.554 97.5366 19.8087C97.5896 20.0634 97.6162 20.3075 97.6162 20.541C97.6162 20.9018 97.5896 21.2786 97.5366 21.6713C97.4835 22.0639 97.457 22.5309 97.457 23.0721C97.457 23.295 97.4676 23.5179 97.4888 23.7407C97.5101 23.9636 97.5525 24.16 97.6162 24.3298C97.6905 24.4996 97.8019 24.6375 97.9505 24.7437C98.0991 24.8498 98.3007 24.9028 98.5554 24.9028C98.8313 24.9028 99.102 24.8339 99.3673 24.6959C99.6326 24.5473 99.8873 24.3563 100.131 24.1228C100.376 23.8893 100.604 23.624 100.816 23.3268C101.039 23.0297 101.24 22.7325 101.421 22.4354C101.601 22.1382 101.76 21.857 101.898 21.5917C102.036 21.3157 102.148 21.0823 102.233 20.8912C102.286 20.7745 102.36 20.6843 102.456 20.6206C102.551 20.5569 102.657 20.5251 102.774 20.5251C102.954 20.5251 103.098 20.5941 103.204 20.732C103.321 20.8594 103.379 20.9973 103.379 21.1459C103.379 21.2202 103.363 21.2945 103.331 21.3688C103.289 21.4537 103.204 21.6341 103.076 21.91C102.949 22.1754 102.779 22.4831 102.567 22.8334C102.355 23.173 102.105 23.5338 101.819 23.9159C101.543 24.2979 101.235 24.6534 100.896 24.9824C100.556 25.3008 100.19 25.5661 99.7971 25.7784C99.4044 25.98 98.9905 26.0809 98.5554 26.0809C98.0885 26.0809 97.7064 25.996 97.4092 25.8262C97.1227 25.667 96.8892 25.4494 96.7088 25.1735C96.539 24.8975 96.4222 24.5792 96.3586 24.2183C96.2949 23.8575 96.2631 23.4807 96.2631 23.0881C96.2631 22.568 96.2896 22.0905 96.3427 21.6553C96.3957 21.2096 96.4222 20.8647 96.4222 20.6206C96.4222 20.3553 96.3957 20.1536 96.3427 20.0157C96.3002 19.8777 96.2418 19.7822 96.1675 19.7291C96.1039 19.6654 96.0402 19.6336 95.9765 19.6336C95.9128 19.623 95.8651 19.6177 95.8332 19.6177C95.5785 19.6177 95.3079 19.761 95.0214 20.0475C94.7454 20.3234 94.4589 20.6949 94.1617 21.1618C93.8646 21.6288 93.5568 22.1594 93.2384 22.7538C92.9306 23.3481 92.6176 23.953 92.2992 24.5685C92.1188 24.9082 91.9649 25.1894 91.8375 25.4123C91.7208 25.6351 91.6041 25.8102 91.4873 25.9376C91.3812 26.0649 91.2751 26.1552 91.1689 26.2082C91.0628 26.2613 90.9461 26.2878 90.8187 26.2878C90.5428 26.2878 90.3305 26.1923 90.1819 26.0013C90.044 25.8102 89.975 25.5608 89.975 25.2531C89.975 25.0939 89.9803 24.8816 89.9909 24.6163C90.0015 24.351 90.0121 24.0591 90.0228 23.7407C90.0334 23.4224 90.0493 23.0934 90.0705 22.7538C90.0917 22.4142 90.1077 22.0905 90.1183 21.7827C90.1289 21.4643 90.1395 21.1831 90.1501 20.939C90.1607 20.6949 90.166 20.5092 90.166 20.3818C90.166 20.1059 90.1183 19.9095 90.0228 19.7928C89.9272 19.6654 89.8158 19.6018 89.6884 19.6018C89.5717 19.6018 89.439 19.6442 89.2905 19.7291C89.1525 19.814 88.988 19.9785 88.797 20.2226C88.6484 20.4136 88.4574 20.6949 88.2239 21.0663C88.001 21.4272 87.7622 21.8305 87.5075 22.2762C87.2528 22.7219 86.9981 23.1783 86.7434 23.6452C86.4993 24.1122 86.2871 24.5314 86.1066 24.9028C85.8838 25.3486 85.6609 25.651 85.438 25.8102C85.2152 25.98 84.9976 26.0649 84.7854 26.0649C84.4776 26.0649 84.2494 25.9747 84.1008 25.7943C83.9523 25.6033 83.878 25.3539 83.878 25.0461C83.878 25.0143 83.8833 24.8232 83.8939 24.473C83.9151 24.1228 83.9363 23.6983 83.9576 23.1995C83.9788 22.6901 84 22.1488 84.0212 21.5757C84.0531 21.0027 84.0796 20.4667 84.1008 19.9679C84.1114 19.7026 84.1008 19.4585 84.069 19.2356C84.0372 19.0128 83.9947 18.8801 83.9416 18.8377C83.8567 18.8589 83.6869 19.0552 83.4322 19.4267C83.1881 19.7981 82.8751 20.4455 82.493 21.3688C82.4399 21.4855 82.3603 21.5757 82.2542 21.6394C82.1481 21.7031 82.0366 21.7349 81.9199 21.7349C81.7395 21.7349 81.5962 21.6766 81.4901 21.5598C81.384 21.4325 81.3309 21.2892 81.3309 21.13C81.3309 21.0557 81.3468 20.9761 81.3787 20.8912C81.8562 19.7557 82.3126 18.9226 82.7477 18.3919C83.1828 17.8507 83.6073 17.58 84.0212 17.58C84.2653 17.58 84.467 17.6384 84.6262 17.7552C84.796 17.8613 84.9286 18.0046 85.0241 18.185C85.1197 18.3548 85.1886 18.5511 85.2311 18.774C85.2735 18.9968 85.2948 19.2144 85.2948 19.4267C85.2948 20.3712 85.2682 21.2361 85.2152 22.0215C85.1727 22.8068 85.125 23.5975 85.0719 24.3934Z" fill="white"/>
<path d="M104.159 24.0591C104.382 24.3669 104.668 24.6163 105.019 24.8073C105.369 24.9877 105.799 25.078 106.308 25.078C106.828 25.078 107.3 24.9559 107.725 24.7118C108.149 24.4571 108.537 24.1281 108.887 23.7248C109.237 23.3215 109.55 22.8705 109.826 22.3717C110.102 21.8729 110.351 21.3741 110.574 20.8753C110.627 20.7586 110.702 20.6737 110.797 20.6206C110.893 20.5569 110.999 20.5251 111.116 20.5251C111.296 20.5251 111.439 20.5888 111.545 20.7161C111.662 20.8435 111.721 20.9814 111.721 21.13C111.721 21.1831 111.715 21.2308 111.705 21.2733C111.694 21.3051 111.678 21.3423 111.657 21.3847C110.925 22.9979 110.123 24.213 109.253 25.0302C108.393 25.8474 107.417 26.2666 106.324 26.2878C105.624 26.2878 105.019 26.1498 104.509 25.8739C104 25.6086 103.581 25.2637 103.252 24.8392C102.923 24.404 102.678 23.9159 102.519 23.3746C102.36 22.8334 102.28 22.2921 102.28 21.7509C102.28 21.2096 102.344 20.7108 102.472 20.2545C102.609 19.7981 102.801 19.4001 103.045 19.0605C103.299 18.7209 103.596 18.4556 103.936 18.2646C104.286 18.0735 104.668 17.978 105.082 17.978C105.326 17.978 105.565 18.0311 105.799 18.1372C106.043 18.2327 106.26 18.376 106.451 18.567C106.642 18.7474 106.796 18.9703 106.913 19.2356C107.03 19.5009 107.088 19.8034 107.088 20.143C107.088 20.5781 107.014 20.9867 106.865 21.3688C106.717 21.7509 106.51 22.1064 106.244 22.4354C105.99 22.7644 105.682 23.0668 105.321 23.3428C104.96 23.6187 104.573 23.8575 104.159 24.0591ZM103.681 23.0244C104.01 22.8864 104.308 22.7113 104.573 22.4991C104.849 22.2868 105.082 22.0533 105.273 21.7986C105.464 21.5439 105.613 21.2786 105.719 21.0027C105.825 20.7161 105.878 20.4296 105.878 20.143C105.878 19.8246 105.799 19.5859 105.639 19.4267C105.48 19.2569 105.295 19.172 105.082 19.172C104.796 19.172 104.552 19.2516 104.35 19.4107C104.148 19.5699 103.984 19.7769 103.856 20.0316C103.729 20.2863 103.634 20.5728 103.57 20.8912C103.517 21.199 103.49 21.5068 103.49 21.8145C103.49 22.0056 103.506 22.2072 103.538 22.4195C103.581 22.6317 103.628 22.8334 103.681 23.0244Z" fill="white"/>
<path fill-rule="evenodd" clip-rule="evenodd" d="M63.1134 11.4067L62.0248 8.67257C61.959 8.50742 62.0646 8.32372 62.2391 8.29913C62.8487 8.21322 64.1361 8.02082 65.0084 7.81327C66.1866 7.53294 67.9286 6.91063 67.9286 6.91063C64.2627 6.42592 62.3588 4.73836 62.782 3.21057C63.2053 1.68277 65.3937 1.17086 67.3117 1.72119C69.2298 2.27153 70.8593 5.01765 70.8593 5.01765C71.1279 3.98229 71.8699 2.24102 73.2127 1.16864C74.8265 -0.120208 77.1137 -0.549695 77.9014 0.951755C79.5211 4.03914 75.413 5.90395 73.1564 6.45043C73.1564 6.45043 74.963 7.33381 76.355 7.77466C77.4407 8.11851 79.2238 8.49387 79.9559 8.64241C80.1249 8.6767 80.2203 8.85981 80.1517 9.01958L78.9913 11.7224C78.9336 11.8569 78.7825 11.9214 78.6479 11.867C77.882 11.5571 75.473 10.5635 74.2119 9.8257C72.6994 8.94079 71.1419 7.43144 71.1419 7.43144C71.1419 7.43144 69.3982 8.88305 67.8494 9.7067C66.5622 10.3913 64.2098 11.2801 63.4521 11.5607C63.3162 11.6111 63.1674 11.5423 63.1134 11.4067ZM76.6575 2.54736C74.1841 3.19508 72.4329 5.19104 71.8692 6.10522C71.843 6.14773 71.7876 6.16073 71.7455 6.13425C71.7034 6.10777 71.6906 6.05184 71.7168 6.00932C72.2951 5.07129 74.0795 3.03509 76.6124 2.37178C76.6604 2.35921 76.7094 2.38832 76.7218 2.43681C76.7343 2.48529 76.7055 2.53479 76.6575 2.54736ZM64.2309 4.01575C64.1814 4.0182 64.1432 4.06074 64.1456 4.11077C64.148 4.16079 64.1901 4.19937 64.2397 4.19692C67.1851 4.0514 68.9866 5.4862 69.5122 6.20548C69.5416 6.24578 69.5978 6.25433 69.6377 6.22458C69.6776 6.19484 69.6861 6.13805 69.6567 6.09775C69.0963 5.33097 67.238 3.86718 64.2309 4.01575Z" fill="#FF385C"/>
</svg>
